<svg width="25" height="24" viewBox="0 0 25 24" fill="none" xmlns="http://www.w3.org/2000/svg">
<g id="&#208;&#156;&#208;&#181;&#208;&#189;&#209;&#142;">
<path id="icon/image/dehaze_24px" fill-rule="evenodd" clip-rule="evenodd" d="M3.91046 8C3.37159 8 2.93069 7.55 2.93069 7C2.93069 6.45 3.37159 6 3.91046 6H21.5463C22.0851 6 22.526 6.45 22.526 7C22.526 7.55 22.0851 8 21.5463 8H3.91046ZM2.93069 12C2.93069 12.55 3.37159 13 3.91046 13H21.5463C22.0851 13 22.526 12.55 22.526 12C22.526 11.45 22.0851 11 21.5463 11H3.91046C3.37159 11 2.93069 11.45 2.93069 12ZM2.93069 17C2.93069 17.55 3.37159 18 3.91046 18H21.5463C22.0851 18 22.526 17.55 22.526 17C22.526 16.45 22.0851 16 21.5463 16H3.91046C3.37159 16 2.93069 16.45 2.93069 17Z" fill="white"/>
</g>
</svg>
