<svg width="32" height="32" viewBox="0 0 32 32" fill="none" xmlns="http://www.w3.org/2000/svg">
<path d="M23.2218 19.2682L20.6818 18.9782C20.0718 18.9082 19.4718 19.1182 19.0418 19.5482L17.2018 21.3882C14.3718 19.9482 12.0518 17.6382 10.6118 14.7982L12.4618 12.9482C12.8918 12.5182 13.1018 11.9182 13.0318 11.3082L12.7418 8.78816C12.6218 7.77816 11.7718 7.01816 10.7518 7.01816H9.02179C7.89179 7.01816 6.95179 7.95816 7.02179 9.08816C7.55179 17.6282 14.3818 24.4482 22.9118 24.9782C24.0418 25.0482 24.9818 24.1082 24.9818 22.9782V21.2482C24.9918 20.2382 24.2318 19.3882 23.2218 19.2682Z" fill="white"/>
<circle cx="16" cy="16" r="15.5" stroke="white"/>
</svg>
